<?xml version="1.0" encoding="UTF-8" standalone="no"?>
<!DOCTYPE svg PUBLIC "-//W3C//DTD SVG 1.1//EN" "http://www.w3.org/Graphics/SVG/1.1/DTD/svg11.dtd">
<svg width="100%" height="100%" viewBox="0 0 292 258" version="1.1" xmlns="http://www.w3.org/2000/svg" xmlns:xlink="http://www.w3.org/1999/xlink" xml:space="preserve" xmlns:serif="http://www.serif.com/" style="fill-rule:evenodd;clip-rule:evenodd;stroke-linejoin:round;stroke-miterlimit:2;">
    <g transform="matrix(4.16667,0,0,4.16667,-1872.82,-2329.6)">
        <g transform="matrix(1,0,0,1,201.6,-117.333)">
            <g transform="matrix(0.124822,0,0,0.124822,217.175,645.763)">
                <path d="M686.257,660.359C686.351,661.065 686.357,661.832 686.244,662.674C686.509,661.794 686.49,661.026 686.257,660.359Z" style="fill:rgb(255,174,99);fill-rule:nonzero;"/>
            </g>
        </g>
        <g transform="matrix(1,0,0,1,201.6,-117.333)">
            <g transform="matrix(0.124822,0,0,0.124822,217.175,645.763)">
                <path d="M288.545,694.026C278.899,692.808 270.195,690.136 262.767,685.957C254.672,681.403 247.435,673.822 252.229,666.812C252.832,665.93 250.862,665.148 250.196,666.042C245.371,672.509 249.751,679.444 256.34,684.65C264.078,690.765 275.702,694.808 287.61,696.221C289.821,696.483 290.776,694.309 288.545,694.026Z" style="fill-rule:nonzero;stroke:black;stroke-width:4.38px;"/>
            </g>
        </g>
        <g transform="matrix(1,0,0,1,201.6,-117.333)">
            <g transform="matrix(0.558715,0,0,0.558715,-3.1474,391.134)">
                <path d="M546.155,519.684C546.155,519.684 550.504,530.743 561.751,528.757" style="fill:none;stroke:black;stroke-width:0.84px;stroke-linecap:round;stroke-miterlimit:1.5;"/>
            </g>
        </g>
        <g transform="matrix(1,0,0,1,201.6,-117.333)">
            <g transform="matrix(0.124822,0,0,0.124822,217.175,645.763)">
                <path d="M685.744,296.557C683.955,299.807 699.237,272.047 702.594,266.962C704.438,264.168 706.805,260.363 709.415,255.82C710.333,254.222 711.19,252.532 712.314,251.07C713.607,249.388 715.713,249.381 717.416,249.606C720.149,249.967 722.809,251.195 725.351,252.131C731.336,254.336 737.122,257.035 742.644,260.196C748.13,263.336 753.25,267.093 757.905,271.419C760.143,273.499 762.215,275.767 764.177,278.136C764.604,278.636 765,279.163 765.365,279.717C766.165,279.661 766.45,280.826 765.752,281.202C765.669,282.095 765.102,282.949 764.652,283.797C763.804,285.399 762.923,286.984 762.034,288.564C756.972,297.56 733.656,332.259 736.704,327.7C737.95,325.837 763.739,288.667 765.461,285.495C766.434,283.703 768.03,281.385 767.04,279.399C765.636,276.584 763.137,274.293 761.017,272.113C756.058,267.013 750.304,262.797 744.26,259.182C738.417,255.688 732.173,252.91 725.794,250.512C721.586,248.93 715.473,245.688 711.258,249.965C708.991,252.264 707.485,256.13 705.892,258.928C703.697,262.779 687.882,292.674 685.744,296.557Z" style="fill-rule:nonzero;stroke:black;stroke-width:4.18px;"/>
            </g>
        </g>
        <g transform="matrix(1,0,0,1,201.6,-117.333)">
            <g transform="matrix(0.124822,0,0,0.124822,217.175,645.763)">
                <path d="M752.161,277.232C747.661,275.331 743.245,273.243 738.893,271.034C730.614,266.83 720.898,262.432 715.481,254.377C714.929,253.556 713.546,254.452 714.102,255.279C719.891,263.886 730.103,268.465 738.939,272.952C743.805,275.422 748.783,277.682 753.84,279.751C757.551,281.271 761.403,282.36 765.569,281.29C765.643,281.271 765.693,281.233 765.752,281.202C766.45,280.826 766.165,279.661 765.365,279.717C765.315,279.721 765.271,279.71 765.217,279.724C760.532,280.927 756.229,278.951 752.161,277.232Z" style="fill-rule:nonzero;stroke:black;stroke-width:2.55px;"/>
            </g>
        </g>
        <g transform="matrix(1,0,0,1,201.6,-117.333)">
            <g transform="matrix(0.124822,0,0,0.124822,217.175,645.763)">
                <path d="M617.452,454.252C617.369,454.184 617.283,454.121 617.199,454.054C617.213,454.199 617.194,454.35 617.094,454.505C616.862,454.861 616.645,455.225 616.419,455.583C617.348,456.075 618.359,454.989 617.452,454.252Z" style="fill-rule:nonzero;"/>
            </g>
        </g>
        <g transform="matrix(1,0,0,1,201.6,-117.333)">
            <g transform="matrix(0.124822,0,0,0.124822,217.175,645.763)">
                <path d="M582.838,439.248C581.941,438.704 582.726,437.256 583.685,437.766C584.447,438.17 584.123,439.167 583.482,439.349C586.206,439.811 589.032,440.715 590.124,441.067C595.449,442.785 600.56,445.196 605.434,447.976C608.749,449.867 611.87,452.057 614.855,454.4C615.028,454.13 615.19,453.855 615.365,453.587C615.548,453.306 615.837,453.209 616.132,453.217C610.042,448.46 603.399,444.566 596.276,441.564C596.316,441.493 596.352,441.416 596.37,441.322C596.605,440.144 596.841,438.966 597.076,437.789C616.352,444.596 634.72,453.892 651.694,465.341C656.027,468.264 660.228,471.365 664.342,474.563C668.366,477.693 672.77,480.914 676.056,484.747C679.823,489.144 678.774,495.005 672.445,494.736C667.831,494.54 662.651,492.153 658.286,490.567C641.502,484.465 625.695,475.782 610.428,466.472C610.337,466.664 610.238,466.852 610.149,467.045C609.683,468.051 607.956,467.129 608.421,466.127C608.526,465.898 608.643,465.676 608.751,465.448C606.622,464.14 604.503,462.823 602.393,461.499C598.168,458.847 593.973,456.149 589.78,453.447C585.431,450.644 580.312,447.917 577.953,443.308C575.841,439.183 579.101,438.714 582.838,439.248ZM577.734,438.177C577.03,439.597 576.31,441.008 575.603,442.426C576.081,444.459 577.87,446.559 579.225,447.979C582.176,451.075 586.426,453.322 590.021,455.639C598.76,461.27 607.543,466.836 616.512,472.111C625.438,477.361 634.589,482.241 644.01,486.541C652.434,490.385 661.668,494.445 670.686,496.255C672.769,496.673 674.795,496.514 676.452,495.87C677.35,494.392 678.236,492.908 679.135,491.431C679.418,490.966 679.931,490.928 680.31,491.12C680.393,490.229 680.29,489.243 679.942,488.164C678.904,484.951 676.538,482.5 673.91,480.179C670.012,476.734 665.864,473.513 661.692,470.372C641.981,455.536 619.764,443.872 596.482,435.756C595.976,435.58 595.469,435.939 595.383,436.369C595.086,437.857 594.788,439.345 594.49,440.833C593.91,440.604 593.327,440.378 592.741,440.16C589.191,438.837 581.681,435.883 577.815,437.729C577.826,437.87 577.812,438.019 577.734,438.177Z" style="fill-rule:nonzero;stroke:black;stroke-width:3.97px;"/>
            </g>
        </g>
        <g transform="matrix(1,0,0,1,201.6,-117.333)">
            <g transform="matrix(0.124822,0,0,0.124822,217.215,645.817)">
                <path d="M608.421,466.127C607.956,467.129 609.683,468.051 610.149,467.045C610.238,466.852 610.337,466.664 610.428,466.472C612.199,462.716 614.197,459.091 616.419,455.583C616.645,455.225 616.862,454.861 617.094,454.505C617.194,454.35 617.213,454.199 617.199,454.054C617.159,453.592 616.644,453.231 616.132,453.217C615.837,453.209 615.548,453.306 615.365,453.587C615.19,453.855 615.028,454.13 614.855,454.4C612.588,457.958 610.554,461.636 608.751,465.448C608.643,465.676 608.526,465.898 608.421,466.127Z" style="fill-rule:nonzero;stroke:black;stroke-width:3.97px;"/>
            </g>
        </g>
        <g transform="matrix(1,0,0,1,201.6,-117.333)">
            <g transform="matrix(0.124822,0,0,0.124822,217.175,645.763)">
                <path d="M583.482,439.349C584.123,439.167 584.447,438.17 583.685,437.766C582.726,437.256 581.941,438.704 582.838,439.248C582.854,439.258 582.862,439.273 582.88,439.283C583.097,439.397 583.301,439.401 583.482,439.349Z" style="fill-rule:nonzero;"/>
            </g>
        </g>
        <g transform="matrix(1,0,0,1,201.6,-117.333)">
            <g transform="matrix(0.124822,0,0,0.124822,217.309,645.88)">
                <path d="M575.603,442.426C576.31,441.008 577.03,439.597 577.734,438.177C577.812,438.019 577.826,437.87 577.815,437.729C577.755,436.979 576.632,436.537 576.218,437.372C542.497,505.371 505.489,571.722 465.354,636.145C458.071,647.836 450.668,659.453 443.178,671.013C443.797,671.109 444.417,671.198 445.037,671.291C485.614,608.613 523.206,544.021 557.642,477.769C563.737,466.043 569.71,454.254 575.603,442.426Z" style="fill-rule:nonzero;stroke:black;stroke-width:3.97px;"/>
            </g>
        </g>
        <g transform="matrix(1,0,0,1,201.6,-117.333)">
            <g transform="matrix(0.124822,0,0,0.124822,217.068,645.763)">
                <path d="M680.651,492.236C680.943,491.757 680.697,491.317 680.31,491.12C679.931,490.928 679.418,490.966 679.135,491.431C678.236,492.908 677.35,494.392 676.452,495.87C640.047,555.851 605.108,616.718 571.652,678.393C572.293,678.402 572.934,678.413 573.574,678.422C599.019,631.529 625.321,585.104 652.479,539.18C661.768,523.471 671.164,507.825 680.651,492.236Z" style="fill-rule:nonzero;stroke:black;stroke-width:3.97px;"/>
            </g>
        </g>
        <g transform="matrix(1,0,0,1,201.6,-117.333)">
            <g transform="matrix(0.124822,0,0,0.124822,217.175,645.763)">
                <path d="M529.109,453.787C537.202,441.045 545.363,428.138 554.698,416.085C555.063,415.465 555.443,414.855 555.83,414.25C564.845,403.34 571.424,390.26 581.532,380.276C587.095,374.781 594.304,373.033 601.643,371.185C609.24,369.272 616.897,367.333 624.591,365.889C631.46,364.599 638.46,363.03 644.565,359.486C645.532,358.925 646.472,358.316 647.375,357.658C654.071,352.778 658.455,345.428 662.654,338.286C664.71,334.606 666.932,331.01 669.068,327.377C669.812,326.111 670.557,324.845 671.301,323.579C672.705,321.19 674.109,318.802 675.514,316.413C676.392,314.951 677.248,313.476 678.1,311.998C678.52,311.268 678.94,310.538 679.362,309.809C679.76,309.121 680.263,308.506 680.629,307.798C680.636,307.785 680.641,307.774 680.643,307.768C680.752,307.504 680.756,307.247 680.537,307.04C678.038,304.667 676.103,302.105 675.173,298.69C674.38,295.778 675.358,292.933 676.791,290.333C677.135,289.709 677.502,289.098 677.881,288.504C678.122,288.126 678.365,287.756 678.608,287.393C678.704,287.25 678.799,287.107 678.893,286.966C679.019,286.78 679.145,286.594 679.268,286.412C679.846,285.559 678.447,284.787 677.875,285.633C677.784,285.767 677.695,285.901 677.605,286.035C675.272,289.513 673.138,293.148 673.371,297.485C673.57,301.19 676.008,304.41 678.435,307.011C678.514,307.096 678.587,307.175 678.657,307.252C678.553,307.319 678.451,307.401 678.354,307.493C678.105,307.729 677.887,308.029 677.725,308.312C675.231,312.641 672.738,316.969 670.244,321.297C667.621,325.852 664.997,330.407 662.374,334.961C658.413,341.837 654.331,348.861 648.266,353.979C637.566,363.005 622.736,364.676 609.524,367.304C606.313,367.942 603.114,368.637 599.933,369.408C593.162,371.049 586.882,372.777 581.419,377.29C575.867,381.875 571.838,388.332 567.629,394.09C564.511,398.356 561.205,402.482 558.089,406.751C556.546,408.866 554.915,411.007 553.613,413.282C550.43,418.841 546.353,423.832 542.721,429.111C517.573,465.654 426.827,622.22 404.624,662.145C405.383,662.446 406.15,662.733 406.924,663.007C425.552,629.62 510.497,483.093 529.109,453.787Z" style="fill-rule:nonzero;stroke:black;stroke-width:4.38px;"/>
            </g>
        </g>
        <g transform="matrix(1,0,0,1,201.6,-117.333)">
            <g transform="matrix(0.558715,0,0,0.558715,-3.1324,391.164)">
                <path d="M545.754,519.499C545.754,519.499 548.219,518.74 548.799,519.384" style="fill:none;stroke:black;stroke-width:1.25px;stroke-linecap:round;stroke-miterlimit:1.5;"/>
            </g>
        </g>
        <g transform="matrix(1,0,0,1,201.6,-117.333)">
            <g transform="matrix(0.124822,0,0,0.124822,217.175,645.763)">
                <path d="M709.363,416.213C708.824,414.291 708.265,412.366 707.686,410.434C705.104,401.806 703.008,393.077 705.526,385.242C708.193,376.943 712.987,369.435 716.98,361.785C717.612,360.574 718.244,359.364 718.876,358.153C722.259,351.671 725.643,345.19 729.025,338.709C729.088,338.588 729.031,338.335 729.126,338.241C729.301,338.067 729.551,338.244 729.728,338.302C730.058,338.409 730.418,338.445 730.757,338.505C731.449,338.629 732.146,338.727 732.848,338.787C740.478,339.44 749.362,335.723 750.51,327.279C750.512,327.266 750.506,327.256 750.508,327.244C750.601,326.264 749.096,325.891 748.959,326.899C748.785,328.173 748.427,329.301 747.94,330.314C744.866,336.713 736.162,338.094 729.515,336.601C729.143,336.517 728.77,336.421 728.399,336.325C728.35,336.304 728.299,336.289 728.246,336.287C727.637,336.599 727.223,337.671 726.828,338.371C723.489,344.766 720.151,351.161 716.813,357.556C714.972,361.085 713.13,364.614 711.288,368.143C706.778,376.783 701.308,385.366 702.508,396.149C703.06,401.117 704.375,405.963 705.775,410.748C706.479,413.154 707.214,415.551 707.907,417.961C708.37,419.569 708.689,420.88 709.495,422.333C712.692,428.097 714.456,434.525 716.102,440.866C717.641,446.791 719.109,452.647 717.689,458.786C714.423,472.904 706.49,485.583 701.966,499.286C696.443,514.389 689.352,528.858 682.382,543.169C673.144,562.135 639.98,624.485 611.087,678.176C612.038,678.146 612.989,678.103 613.94,678.068C646.433,617.496 684.936,544.256 696.31,518.548C698.81,512.897 701.216,507.129 703.419,501.25C703.53,501.165 703.628,501.053 703.702,500.907C707.424,493.559 710.101,485.495 713.216,477.867C715.912,471.265 719.298,464.448 720.292,457.316C721.269,450.299 719.448,444.045 717.296,437.419C714.957,430.219 712.237,423.204 709.363,416.213Z" style="fill-rule:nonzero;stroke:black;stroke-width:4.38px;"/>
            </g>
        </g>
        <g transform="matrix(1,0,0,1,201.6,-117.333)">
            <g transform="matrix(0.558715,0,0,0.558715,-3.1324,391.164)">
                <path d="M561.981,528.795C561.981,528.795 561.555,527.458 560.61,526.621" style="fill:none;stroke:black;stroke-width:1.25px;stroke-linecap:round;stroke-miterlimit:1.5;"/>
            </g>
        </g>
        <g transform="matrix(1,0,0,1,201.6,-117.333)">
            <g transform="matrix(0.124822,0,0,0.124822,217.175,645.763)">
                <path d="M337.984,681.96C329.093,683.083 320.343,681.569 312.288,678.231C304.749,675.108 296.018,669.901 295.599,661.976C295.201,654.455 303.197,648.337 309.926,644.86C317.832,640.775 327.096,639.09 336.229,639.171C337.319,639.181 337.279,637.813 336.229,637.729C325.763,636.895 315.442,639.223 306.51,643.986C298.974,648.007 292.378,654.882 292.755,662.905C293.136,671.02 302.278,676.542 309.695,679.998C318.534,684.116 328.825,685.948 338.732,684.312C340.539,684.013 339.737,681.738 337.984,681.96Z" style="fill-rule:nonzero;stroke:black;stroke-width:4.38px;"/>
            </g>
        </g>
        <g transform="matrix(1,0,0,1,201.6,-117.333)">
            <g transform="matrix(0.124822,0,0,0.124822,217.175,645.763)">
                <path d="M731.048,695.871C760.8,693.72 789.749,689.852 800.03,676.241C801.994,673.641 802.781,670.808 802.306,668.047C801.742,664.781 799.466,661.75 795.722,659.283C793.48,657.806 790.612,656.548 787.244,655.534C789.938,656.442 792.482,657.58 794.737,659.001C798.448,661.338 800.628,664.393 801.041,667.834C801.481,671.501 799.918,675.384 796.639,678.767C784.323,691.472 754.57,693.911 730.641,695.863C730.76,695.878 730.901,695.883 731.048,695.871Z" style="fill-rule:nonzero;"/>
            </g>
        </g>
        <g transform="matrix(1,0,0,1,201.6,-117.333)">
            <g transform="matrix(0.124822,0,0,0.124822,217.175,645.763)">
                <path d="M801.041,667.834C800.628,664.393 798.448,661.338 794.737,659.001C792.482,657.58 789.938,656.442 787.244,655.534C790.612,656.548 793.48,657.806 795.722,659.283C799.466,661.75 801.742,664.781 802.306,668.047C802.781,670.808 801.994,673.641 800.03,676.241C789.749,689.852 760.8,693.72 731.048,695.871C730.901,695.883 730.76,695.878 730.641,695.863C754.57,693.911 784.323,691.472 796.639,678.767C799.918,675.384 801.481,671.501 801.041,667.834ZM803.742,667.799C803.11,664.126 800.613,660.76 796.523,658.065C787.035,651.812 770.479,651.137 763.803,651.137L763.493,651.138C762.364,651.141 761.848,651.776 761.846,652.365C761.844,652.957 762.357,653.597 763.488,653.607C776.547,653.729 787.368,656.083 793.96,660.234C797.286,662.33 799.234,665.018 799.593,668.008C799.979,671.23 798.559,674.69 795.593,677.751C783.646,690.074 754.154,692.481 730.457,694.416L730.294,694.429C728.637,694.563 728.594,695.597 728.602,695.803C728.638,696.677 729.617,697.335 730.88,697.335C730.969,697.335 731.06,697.332 731.153,697.325C761.248,695.149 790.563,691.195 801.193,677.12C803.407,674.189 804.288,670.967 803.742,667.799Z" style="fill-rule:nonzero;stroke:black;stroke-width:4.38px;"/>
            </g>
        </g>
        <g transform="matrix(1,0,0,1,201.6,-117.333)">
            <g transform="matrix(0.124822,0,0,0.124822,217.175,645.763)">
                <path d="M596.798,730.098C579.343,733.337 561.629,734.937 543.874,734.68C525.575,734.414 507.624,731.685 489.738,727.997C488.559,727.755 488.064,729.473 489.238,729.811C523.955,739.814 562.306,740.142 597.534,732.768C599.291,732.399 598.535,729.775 596.798,730.098Z" style="fill-rule:nonzero;stroke:black;stroke-width:4.38px;"/>
            </g>
        </g>
        <g transform="matrix(1,0,0,1,201.6,-117.333)">
            <g transform="matrix(0.124822,0,0,0.124822,217.175,645.763)">
                <path d="M388.486,627.803C378.204,626.751 367.661,628.325 358.136,632.344C357.137,632.765 357.528,634.405 358.596,634.014C368.311,630.447 378.167,629.103 388.486,629.944C389.872,630.058 389.839,627.941 388.486,627.803Z" style="fill-rule:nonzero;stroke:black;stroke-width:4.38px;"/>
            </g>
        </g>
        <g transform="matrix(1,0,0,1,201.6,-117.333)">
            <g transform="matrix(0.124822,0,0,0.124822,217.175,645.763)">
                <path d="M686.257,660.359C686.49,661.026 686.509,661.794 686.244,662.674C686.357,661.832 686.351,661.065 686.257,660.359ZM587.481,678.51C582.845,678.511 578.209,678.481 573.574,678.422C572.934,678.413 572.293,678.402 571.652,678.393C569.877,678.367 568.101,678.345 566.326,678.313C542.762,677.88 519.176,677.073 495.635,675.933C478.703,675.113 461.787,673.807 445.037,671.291C444.417,671.198 443.797,671.109 443.178,671.013C440.579,670.608 437.985,670.169 435.395,669.701C432.168,669.119 428.947,668.492 425.736,667.803C419.646,666.496 413.078,665.18 406.924,663.007C406.15,662.733 405.383,662.446 404.624,662.145C402.472,661.288 400.385,660.312 398.408,659.17C397.153,658.354 396.052,657.535 395.235,656.776C393.836,655.478 393.146,653.539 393.048,651.68C392.867,648.275 396.321,647.023 398.951,646.153C400.654,645.591 399.968,643.041 398.209,643.462C391.466,645.076 387.08,649.551 389.795,656.724C392.594,664.114 401.226,665.431 408.117,665.963C408.277,665.976 408.436,665.981 408.595,665.987C410.492,666.579 412.399,667.117 414.283,667.636C421.501,669.623 428.816,671.224 436.18,672.556C440.178,673.278 444.189,673.926 448.209,674.506C470.823,677.771 493.688,678.772 516.495,679.614C538.997,680.445 561.555,681.297 584.097,681.366C609.097,681.443 634.077,680.557 658.938,677.564C662.174,677.176 665.545,676.713 668.868,676.005C670.379,676.052 672.175,675.396 673.647,674.771C678.852,673.167 683.695,670.693 687.385,666.574C689.96,663.699 690.046,659.92 687.619,657.012C685.169,654.075 680.289,653.449 676.752,653.209C676.407,653.186 676.127,653.266 675.907,653.409C671.016,652.866 665.597,653.463 662.515,654.021C660.746,654.343 661.238,657.024 662.926,657.06C666.296,657.13 669.691,657.239 673.012,657.843C675.685,658.328 678.89,658.491 680.971,660.444C683.354,662.681 678.289,667.701 676.887,669.013C676.46,669.412 674.17,671.009 672.032,672.187C671.756,672.269 671.483,672.349 671.221,672.424C660.501,675.495 648.708,675.895 637.645,676.76C629.754,677.378 621.85,677.79 613.94,678.068C612.989,678.103 612.038,678.146 611.087,678.176C603.222,678.418 595.352,678.51 587.481,678.51Z" style="fill-rule:nonzero;stroke:black;stroke-width:4.38px;"/>
            </g>
        </g>
    </g>
</svg>
